<svg width="261" height="264" viewBox="0 0 261 264" fill="none" xmlns="http://www.w3.org/2000/svg">
<path d="M118.409 149.695C116.434 152.789 114.464 155.884 112.481 158.974C90.7764 192.805 69.0717 226.637 47.3649 260.468C47.082 260.914 46.8053 261.365 46.493 261.79C45.6084 263.002 44.508 263.817 43.0659 262.783C41.7286 261.825 42.0577 260.586 42.8626 259.397C45.2311 255.903 47.5871 252.397 49.9661 248.91C71.7505 216.947 93.537 184.988 115.328 153.031C116.168 151.8 117.046 150.596 117.906 149.38C118.073 149.485 118.241 149.59 118.409 149.695Z" fill="white"/>
<path d="M241.412 195.054C240.498 196.289 238.455 195.661 237.375 195.086C205.419 177.996 173.431 160.969 141.451 143.926C140.931 143.651 140.449 143.308 140.089 142.649C140.663 142.848 141.264 142.991 141.805 143.258C168.576 156.421 195.341 169.595 222.107 182.767C227.31 185.33 233.703 188.592 238.916 191.136C241.425 192.361 242.167 193.943 241.412 195.054Z" fill="white"/>
<path d="M138.091 146.092C140.393 148.131 142.713 150.15 144.991 152.215C155.706 161.931 166.4 171.67 177.12 181.382C193.475 196.203 209.848 211.007 226.209 225.824C226.599 226.177 226.987 226.544 227.312 226.956C228.15 228.023 228.488 229.359 227.281 230.126C226.564 230.58 224.962 230.542 224.319 230.025C222.093 228.242 220.102 226.164 218.043 224.175C209.81 216.219 201.589 208.251 193.356 200.295C180.354 187.735 167.348 175.179 154.34 162.627C149.299 157.761 144.241 152.915 139.194 148.058C138.667 147.552 138.164 147.024 137.649 146.508L138.091 146.092Z" fill="white"/>
<path d="M125.276 123.289C124.752 115.852 124.31 108.409 123.685 100.981C121.914 79.8599 120.078 58.7451 118.242 37.6304C117.785 32.3722 116.817 20.423 116.211 15.1816C116.091 14.1313 116.565 12.4044 118.215 12.3099C119.552 12.1923 120.508 13.9296 120.579 15.0388C121.501 33.6452 123.436 65.373 124.392 83.9773C125.029 96.4054 125.574 108.836 126.157 121.266C126.19 121.93 126.192 122.596 126.207 123.259C125.897 123.27 125.587 123.28 125.276 123.289Z" fill="white"/>
<path d="M142.921 106.41C145.258 101.876 147.582 97.3367 149.936 92.8117C162.89 67.9114 175.85 43.0132 188.812 18.117C191.528 12.8945 194.274 7.68886 196.978 2.46217C197.785 0.897102 198.691 -0.73729 200.716 0.355099C202.69 1.42019 201.713 3.03147 200.913 4.45159C196.326 12.6088 191.744 20.7661 187.158 28.9234C172.995 54.1157 158.83 79.308 144.665 104.498C144.262 105.212 143.818 105.904 143.397 106.607C143.237 106.54 143.08 106.475 142.921 106.41Z" fill="white"/>
<path d="M139.959 136.507C143.092 136.589 146.226 136.646 149.358 136.757C164.688 137.301 180.017 137.851 195.347 138.421C210.15 138.971 224.952 139.557 239.754 140.114C245.766 140.341 251.78 140.521 257.791 140.755C258.525 140.784 259.418 140.797 259.94 141.2C260.505 141.637 261.065 142.565 260.994 143.206C260.923 143.836 260.158 144.635 259.514 144.893C258.722 145.208 257.732 145.126 256.839 145.065C241.454 144.028 226.071 142.963 210.688 141.908C194.706 140.813 178.723 139.723 162.739 138.633C155.91 138.166 149.083 137.713 142.254 137.232C141.474 137.177 140.701 136.984 139.925 136.854C139.938 136.738 139.948 136.622 139.959 136.507Z" fill="white"/>
<path d="M139.5 128.764C140.221 128.308 140.932 127.832 141.668 127.399C173.473 108.694 205.283 89.9927 237.093 71.2917C237.221 71.2161 237.349 71.1341 237.483 71.0648C238.908 70.3022 240.545 69.3464 241.612 71.2581C242.662 73.1362 241.136 74.0773 239.654 74.884C209.23 91.4233 178.812 107.973 148.394 124.521C145.518 126.088 142.642 127.651 139.765 129.216C139.677 129.067 139.588 128.916 139.5 128.764Z" fill="white"/>
<path d="M115.704 146.16C114.021 147.635 112.342 149.114 110.654 150.585C84.5648 173.327 58.4751 196.07 32.3854 218.813C31.9306 219.208 31.4799 219.609 31.0146 219.996C29.7968 221.006 28.4343 221.987 27.0803 220.447C25.6885 218.866 26.9042 217.676 28.1136 216.666C29.6752 215.357 31.2724 214.095 32.8507 212.809C59.4414 191.138 86.032 169.464 112.625 147.795C113.495 147.087 114.39 146.412 115.272 145.723C115.415 145.868 115.559 146.015 115.704 146.16Z" fill="white"/>
<path d="M121.143 149.125C118.751 154.322 116.366 159.519 113.97 164.712C105.12 183.882 96.2665 203.047 87.4211 222.216C82.9963 231.8 78.5862 241.392 74.1656 250.978C74.0084 251.32 73.9036 251.806 73.629 251.953C72.6774 252.461 71.5308 253.379 70.7029 253.171C69.2398 252.804 69.0512 251.377 69.7114 250.016C70.466 248.455 71.2625 246.913 72.0423 245.365C88.008 213.639 103.974 181.913 119.939 150.19C120.17 149.736 120.432 149.299 120.679 148.856C120.834 148.946 120.987 149.034 121.143 149.125Z" fill="white"/>
<path d="M132.707 149.05C134.205 152.38 135.723 155.703 137.201 159.041C150.81 189.813 164.412 220.587 178.013 251.361C178.319 252.052 178.839 252.777 178.795 253.456C178.736 254.315 178.392 255.64 177.827 255.859C177.076 256.147 175.942 255.668 175.07 255.294C174.699 255.134 174.534 254.42 174.337 253.932C160.471 219.501 146.608 185.067 132.751 150.63C132.566 150.172 132.449 149.686 132.302 149.214L132.707 149.05Z" fill="white"/>
<path d="M207.778 53.2611C208.897 54.0279 208.476 55.8408 207.579 56.7252C186.908 77.0753 160.992 102.669 140.346 123.042C139.174 124.2 137.975 125.328 136.483 126.273C136.77 125.842 137 125.359 137.35 124.985C145.378 116.399 153.41 107.818 161.459 99.2509C167.288 93.0453 173.157 86.8775 178.98 80.6655C185.526 73.6826 197.136 61.5171 203.64 54.4984C205.659 52.3199 206.667 52.3893 207.778 53.2611Z" fill="white"/>
<path d="M128.633 148.989C128.801 149.601 129.044 150.204 129.122 150.825C130.593 162.338 131.999 173.86 133.507 185.368C135.619 201.511 137.82 217.638 139.952 233.776C141.067 242.221 142.117 250.673 143.19 259.122C143.276 259.796 143.31 260.475 143.362 261.153C143.471 262.59 143.088 263.827 141.482 263.985C139.874 264.145 139.256 263.008 139.093 261.575C138.751 258.58 138.361 255.588 138.086 252.584C137.16 242.519 136.307 232.448 135.368 222.386C134.261 210.521 133.083 198.664 131.953 186.803C130.849 175.167 129.769 163.529 128.667 151.893C128.577 150.949 128.392 150.012 128.252 149.073L128.633 148.989Z" fill="white"/>
<path d="M113.981 138.333C100.386 140.412 86.787 142.469 73.1962 144.578C57.8907 146.952 42.5916 149.383 27.2882 151.773C19.7864 152.946 12.2783 154.09 4.76812 155.227C3.87939 155.364 2.87747 155.651 2.09564 155.38C1.24674 155.084 0.0750438 154.269 0.00377682 153.582C-0.0674901 152.885 0.884119 151.66 1.64918 151.383C3.17721 150.828 4.87502 150.698 6.51624 150.507C14.5106 149.576 22.5155 148.729 30.5057 147.765C44.0211 146.133 57.5239 144.419 71.0351 142.767C78.1282 141.902 85.2275 141.083 92.3248 140.263C99.1244 139.48 105.924 138.725 112.724 137.965C113.158 137.917 113.6 137.955 114.036 137.952C114.019 138.078 114 138.207 113.981 138.333Z" fill="white"/>
<path d="M139.591 132.853C144.376 131.611 149.157 130.351 153.949 129.133C174.218 123.979 194.489 118.845 214.757 113.692C225.183 111.043 235.607 108.375 246.029 105.715C246.32 105.64 246.618 105.587 246.909 105.51C248.387 105.117 249.745 105.278 250.17 106.955C250.64 108.816 249.315 109.501 247.789 109.839C244.559 110.558 241.323 111.243 238.091 111.948C207.524 118.62 176.959 125.294 146.39 131.962C144.196 132.441 141.986 132.853 139.781 133.294C139.718 133.147 139.653 133 139.591 132.853Z" fill="white"/>
<path d="M131.065 124.1C132.87 118.846 134.666 113.59 136.481 108.34C146.027 80.7363 155.574 53.1365 165.124 25.5346C165.22 25.2489 165.313 24.9611 165.422 24.6796C165.939 23.3351 166.631 22.02 168.341 22.6083C170.194 23.2448 170.178 24.6649 169.536 26.314C163.141 42.7735 156.78 59.2476 150.41 75.7155C144.367 91.3409 138.324 106.966 132.274 122.588C132.061 123.14 131.79 123.672 131.545 124.214C131.386 124.176 131.226 124.138 131.065 124.1Z" fill="white"/>
<path d="M137.315 148.408C140.256 151.91 143.201 155.405 146.136 158.911C164.501 180.881 182.865 202.855 201.228 224.827C201.809 225.522 202.396 226.214 202.918 226.949C203.773 228.148 203.903 229.39 202.593 230.318C201.36 231.19 200.294 230.61 199.459 229.56C196.98 226.428 194.506 223.293 192.058 220.136C173.952 196.786 155.857 173.432 137.76 150.074C137.443 149.666 137.166 149.225 136.873 148.801C137.02 148.668 137.169 148.538 137.315 148.408Z" fill="white"/>
<path d="M140.044 138.332C145.439 139.235 150.839 140.117 156.23 141.046C184.73 145.949 213.23 150.861 241.728 155.776C244.864 156.318 246.111 157.253 245.597 158.81C244.746 161.398 242.74 160.379 241.047 160.024C207.875 153.087 174.704 146.134 141.534 139.18C141.027 139.075 140.526 138.93 140.023 138.804C140.029 138.647 140.038 138.489 140.044 138.332Z" fill="white"/>
<path d="M120.244 122.747C118.366 119.021 116.473 115.302 114.618 111.565C101.442 85.0261 88.2748 58.483 75.1052 31.9398C74.772 31.2655 74.1578 30.5596 74.2018 29.9042C74.2689 28.9273 74.5561 27.6354 75.231 27.1438C75.7047 26.7993 77.4025 27.2761 77.8196 27.8896C78.9117 29.4861 79.6369 31.3453 80.4439 33.1289C93.4961 61.9807 106.536 90.8368 119.575 119.695C119.994 120.623 120.349 121.584 120.734 122.529C120.571 122.602 120.407 122.674 120.244 122.747Z" fill="white"/>
<path d="M124.743 151.674C124.217 155.382 123.708 159.092 123.161 162.797C118.805 192.284 114.441 221.77 110.077 251.254C109.968 252.002 110.046 252.905 109.649 253.449C109.058 254.262 108.157 255.313 107.319 255.376C105.889 255.487 105.388 254.193 105.432 252.836C105.447 252.386 105.533 251.937 105.614 251.491C111.685 218.614 117.755 185.738 123.831 152.861C123.913 152.43 124.07 152.014 124.192 151.59C124.376 151.619 124.561 151.646 124.743 151.674Z" fill="white"/>
<path d="M224.123 98.172C224.756 99.4787 224.035 100.573 221.717 101.416C196.396 110.619 167.9 121.203 142.584 130.414C141.551 130.79 140.5 131.122 139.26 130.973C141.014 130.232 142.764 129.475 144.525 128.751C169.235 118.581 195.09 107.943 219.803 97.7833C220.947 97.3128 223.46 96.6594 224.123 98.172Z" fill="white"/>
<path d="M118.521 146.138C115.522 149.806 112.55 153.494 109.521 157.137C101.656 166.586 93.7627 176.01 85.892 185.453C78.9373 193.795 68.7504 205.022 61.8397 213.4C61.3723 213.965 59.4397 215.673 57.8425 214.795C56.6079 213.612 58.5007 211.707 59.6661 210.44C72.9341 196.01 89.7362 176.857 102.918 162.345C107.685 157.099 112.495 151.894 117.291 146.673C117.578 146.36 117.909 146.085 118.222 145.791C118.322 145.907 118.423 146.022 118.521 146.138Z" fill="white"/>
<path d="M139.64 140.259C140.409 140.457 141.191 140.618 141.947 140.858C172.384 150.519 202.817 160.189 233.25 169.861C233.895 170.065 234.547 170.277 235.153 170.571C236.352 171.153 237.352 172.176 236.497 173.392C235.985 174.121 234.394 174.726 233.56 174.476C229.596 173.287 225.725 171.794 221.828 170.39C196.108 161.132 170.387 151.87 144.668 142.606C142.939 141.982 141.226 141.316 139.505 140.669L139.64 140.259Z" fill="white"/>
<path d="M114.639 142.06C108.119 145.148 101.6 148.241 95.0748 151.32C72.3892 162.03 49.7014 172.738 27.0115 183.439C26.4687 183.695 25.8482 184.164 25.3535 184.069C24.4229 183.893 23.2219 183.594 22.7817 182.922C22.4631 182.433 23.0122 181.134 23.5048 180.431C23.8884 179.884 24.7646 179.655 25.4521 179.363C46.1758 170.538 66.9038 161.723 87.6296 152.904C95.6701 149.484 103.706 146.052 111.747 142.63C112.631 142.254 113.535 141.919 114.43 141.567C114.501 141.73 114.57 141.894 114.639 142.06Z" fill="white"/>
<path d="M117.148 125.485C116.142 124.42 115.113 123.374 114.13 122.288C93.8899 99.9356 73.6546 77.5793 53.4192 55.223C53.067 54.8322 52.4739 54.4289 52.455 54.0108C52.4131 53.0025 52.3229 51.6937 52.8805 51.0656C53.2704 50.6265 55.0122 50.7484 55.5991 51.2588C57.06 52.5277 58.2234 54.1495 59.481 55.6536C78.5447 78.4364 97.6021 101.221 116.657 124.01C116.965 124.382 117.217 124.8 117.496 125.195C117.38 125.292 117.265 125.388 117.148 125.485Z" fill="white"/>
<path d="M129.43 123.174C129.939 120.54 130.452 117.903 130.96 115.267C136.512 86.4464 142.065 57.624 147.621 28.8057C147.734 28.2133 147.716 27.4234 148.082 27.0894C148.78 26.4571 149.826 25.5958 150.522 25.7512C151.214 25.9067 152.063 27.1692 152.111 27.9906C152.186 29.2994 151.692 30.6523 151.382 31.9715C145.385 57.6134 139.38 83.2532 133.374 108.893C132.41 113.008 131.446 117.122 130.465 121.231C130.301 121.922 130.046 122.594 129.834 123.273C129.7 123.241 129.564 123.208 129.43 123.174Z" fill="white"/>
<path d="M32.9983 163.314C32.6839 161.89 32.4261 161.415 36.7964 160.239C59.0419 154.26 90.2333 145.947 112.494 140.027C113.055 139.878 113.636 139.811 114.342 140.122C113.479 140.397 112.613 140.668 111.749 140.943C88.2107 148.418 60.7858 157.111 37.2596 164.627C36.5071 164.869 33.4133 165.138 32.9983 163.314Z" fill="white"/>
<path d="M117.546 136.777C117.211 131.636 120.942 127.323 126.046 126.949C131.129 126.575 135.736 130.521 136.13 135.59C136.505 140.436 132.248 145.295 127.347 145.612C122.206 145.944 117.888 142.052 117.546 136.777Z" fill="white"/>
<path d="M126.904 149.851C126.958 153.603 127.054 157.355 127.059 161.107C127.067 168.642 127.021 176.18 127.006 183.717C126.989 193.664 126.973 203.614 126.971 213.561C126.969 220.722 126.989 227.882 127.006 235.043C127.015 237.755 127.065 240.469 127.054 243.184C127.05 244.738 126.662 246.211 124.763 246.164C122.883 246.118 122.581 244.734 122.649 243.108C123.556 221.044 124.443 198.977 125.323 176.911C125.682 167.888 126.013 158.865 126.354 149.84C126.539 149.845 126.721 149.849 126.904 149.851Z" fill="white"/>
<path d="M113.91 136.499C104.741 136.646 95.5733 136.791 86.4072 136.94C79.9367 137.045 73.4661 137.158 66.9935 137.268C53.2999 137.501 39.6063 137.728 25.9149 137.969C24.106 138.001 22.2992 138.184 20.4945 138.148C19.0461 138.118 17.6564 137.623 17.7654 135.837C17.8681 134.127 19.1823 133.703 20.6936 133.738C37.1644 134.131 53.6374 134.537 70.1082 134.908C82.1438 135.179 94.1794 135.396 106.217 135.658C108.816 135.715 111.415 135.864 114.014 135.971C113.979 136.148 113.945 136.322 113.91 136.499Z" fill="white"/>
<path d="M134.072 147.472C135.91 150.392 137.763 153.302 139.585 156.232C153.385 178.458 167.175 200.693 180.994 222.911C181.889 224.35 182.449 225.74 180.743 226.81C178.932 227.944 177.953 226.518 177.19 225.175C172.048 216.129 166.94 207.064 161.834 197.996C155.951 187.551 150.082 177.095 144.206 166.644C140.668 160.35 137.128 154.058 133.588 147.766C133.749 147.668 133.91 147.569 134.072 147.472Z" fill="white"/>
<path d="M119.347 125.212C117.444 122.519 115.526 119.836 113.642 117.131C99.2523 96.4695 84.867 75.8044 70.4838 55.1413C69.9682 54.3997 69.1675 53.6875 69.0438 52.8787C69.0124 52.6687 68.9852 52.4292 68.9663 52.1792C68.8384 50.4125 70.8486 49.194 72.2592 50.2654C72.364 50.3473 72.4562 50.4314 72.5296 50.5154C73.9822 52.2191 75.047 54.2568 76.2564 56.1664C87.9629 74.6279 99.6652 93.0915 111.372 111.555C114.187 115.996 117.008 120.433 119.827 124.874C119.668 124.987 119.509 125.099 119.347 125.212Z" fill="white"/>
<path d="M127.6 123.23C127.86 118.209 128.099 113.189 128.387 108.17C129.168 94.4646 129.977 80.7613 130.763 67.058C131.386 56.216 131.992 45.3719 132.595 34.5299C132.681 32.9585 133.096 31.4943 134.951 31.5783C137.016 31.6707 137.108 33.2652 136.945 34.9122C135.507 49.4011 134.094 63.8943 132.652 78.3832C131.254 92.4226 129.835 106.46 128.414 120.495C128.319 121.43 128.127 122.352 127.982 123.281C127.854 123.264 127.728 123.247 127.6 123.23Z" fill="white"/>
<path d="M155.096 155.577C157.825 157.373 160.562 159.154 163.279 160.967C183.464 174.439 203.649 187.91 223.822 201.401C225.278 202.373 227.483 203.413 225.974 205.554C224.463 207.697 222.698 205.93 221.313 204.917C203.421 191.855 185.56 178.75 167.687 165.658C164.101 163.032 160.495 160.432 156.909 157.804C156.159 157.255 155.456 156.642 154.733 156.058C154.853 155.898 154.974 155.736 155.096 155.577Z" fill="white"/>
<path d="M135.552 123.829C137.826 120.508 140.084 117.176 142.377 113.87C155.301 95.215 168.232 76.5686 181.164 57.9201C181.594 57.3025 182.055 56.7038 182.518 56.1093C183.43 54.935 184.539 54.4539 185.809 55.4875C186.983 56.4412 186.771 57.5966 185.96 58.6974C184.396 60.8213 182.835 62.9473 181.236 65.0459C166.716 84.1124 152.184 103.173 137.671 122.243C137.147 122.93 136.768 123.724 136.321 124.47C136.063 124.256 135.808 124.044 135.552 123.829Z" fill="white"/>
<path d="M130.511 148.387C132.044 153.57 133.584 158.75 135.11 163.935C139.22 177.905 143.199 191.915 147.542 205.811C148.431 208.656 151.417 217.798 148.833 218.12C146.169 218.433 146.177 216.628 144.211 207.33C141.419 194.133 133.006 161.731 129.96 148.589C130.144 148.522 130.329 148.454 130.511 148.387Z" fill="white"/>
<path d="M115.004 128.97C107.703 124.476 100.394 119.995 93.102 115.489C79.5195 107.099 52.2791 90.7441 51.6713 89.887C51.4198 89.5299 50.7909 88.6055 50.684 88.177C50.3424 86.7926 51.5476 85.4166 52.9226 85.78C53.0379 85.8115 56.5635 87.9207 58.1733 89.032C76.78 101.842 95.3825 114.661 113.981 127.484C114.457 127.814 114.886 128.213 115.339 128.579L115.004 128.97Z" fill="white"/>
<path d="M112.551 134.4C111.834 134.349 111.113 134.333 110.4 134.242C77.0181 130.07 43.6383 125.892 10.2585 121.711C9.95881 121.673 9.66326 121.621 9.36562 121.566C7.92353 121.297 6.92161 120.568 7.23393 118.959C7.53995 117.384 8.71374 117.029 10.1684 117.266C15.2954 118.102 20.4223 118.919 25.5493 119.751C53.7099 124.318 81.8684 128.885 110.025 133.459C110.893 133.599 111.75 133.807 112.611 133.984C112.59 134.123 112.572 134.261 112.551 134.4Z" fill="white"/>
<path d="M113.828 130.476C113.035 130.17 112.222 129.907 111.449 129.579C98.5851 124.04 85.7384 118.479 72.8727 112.937C64.478 109.351 54.9849 105.236 45.4521 101.162L42.1193 95.4799C54.5385 101.549 67.3433 107.864 78.3393 113.08C89.9053 118.559 101.469 124.04 113.054 129.518C113.381 129.661 113.664 129.886 113.828 130.476Z" fill="white"/>
<path d="M94.9652 126.484C94.9044 126.627 94.8436 126.77 94.7829 126.932C90.8611 125.934 86.9163 124.936 82.9946 123.938C73.5414 121.535 64.0714 119.129 54.6181 116.726L52.5472 113.201C66.1653 117.398 79.7625 121.594 93.3596 125.791C93.9088 125.974 94.437 126.259 94.9652 126.484Z" fill="white"/>
<path d="M137.862 127.432C138.38 126.968 138.872 126.474 139.415 126.041C157.016 112.008 174.623 97.9812 192.227 83.9545C192.816 83.486 193.405 83.0154 194.013 82.5701C195.242 81.6646 196.598 80.9504 197.778 82.4587C198.991 84.0133 197.904 85.1183 196.673 86.0174C193.452 88.3682 190.217 90.7042 186.973 93.0276C171.181 104.332 155.389 115.632 139.591 126.928C139.134 127.255 138.619 127.499 138.132 127.781C138.042 127.665 137.952 127.549 137.862 127.432Z" fill="white"/>
<path d="M139.836 134.815C142.406 134.437 144.967 133.971 147.55 133.698C158.405 132.549 169.269 131.498 180.122 130.337C189.326 129.349 198.517 128.255 207.715 127.217C209.333 127.034 210.964 127.244 211.209 129.164C211.452 131.051 209.851 131.578 208.375 131.664C197.777 132.269 187.173 132.809 176.572 133.362C173.038 133.544 169.504 133.691 165.97 133.868C157.774 134.275 149.576 134.694 141.379 135.103C140.869 135.128 140.358 135.107 139.847 135.107C139.842 135.011 139.838 134.912 139.836 134.815Z" fill="white"/>
<path d="M123.14 149.436C122.199 152.732 121.262 156.028 120.313 159.322C115.133 177.29 109.95 195.257 104.766 213.227C104.682 213.517 104.607 213.809 104.517 214.097C104.051 215.586 103.297 216.908 101.496 216.336C99.6644 215.755 99.8719 214.242 100.385 212.767C107.65 191.905 114.915 171.04 122.189 150.179C122.3 149.858 122.524 149.576 122.694 149.276C122.843 149.328 122.991 149.383 123.14 149.436Z" fill="white"/>
<path d="M121.274 105.68C120.664 103.152 120.022 100.634 119.452 98.0959C115.543 80.6764 111.655 63.2485 107.743 45.829C107.094 42.9384 107.448 41.4426 109.062 41.2998C111.623 41.0771 111.615 43.1421 111.892 44.8143C113.422 54.0262 114.92 63.2443 116.425 72.4604C117.922 81.6008 119.419 90.7433 120.903 99.8858C121.209 101.781 121.456 103.684 121.733 105.585C121.58 105.617 121.427 105.648 121.274 105.68Z" fill="white"/>
<path d="M122.985 124.293C121.507 120.056 120.008 115.825 118.554 111.579C113.672 97.3172 108.807 83.0488 103.929 68.7847C102.978 65.999 103.179 64.392 104.728 64.1273C107.292 63.6903 107.545 65.7764 108.021 67.5158C112.957 85.5445 117.893 103.571 122.821 121.602C123.054 122.449 123.226 123.31 123.425 124.165C123.278 124.209 123.131 124.251 122.985 124.293Z" fill="white"/>
<path d="M116.262 127.491C113.681 125.437 111.086 123.399 108.521 121.326C99.0865 113.702 89.6584 106.068 80.2408 98.4232C79.5449 97.8581 78.6604 97.272 78.39 96.5095C78.1175 95.7385 78.1846 94.4129 78.6834 93.9234C79.1823 93.4318 80.4043 93.581 81.2972 93.6377C81.6515 93.6608 81.9826 94.1818 82.3117 94.4906C93.119 104.665 103.93 114.841 114.729 125.027C115.421 125.679 116.035 126.41 116.685 127.105C116.545 127.233 116.402 127.361 116.262 127.491Z" fill="white"/>
<path d="M104.193 149.833C102.061 151.415 99.9463 153.022 97.7936 154.577C87.3657 162.117 76.9315 169.65 66.4827 177.162C65.114 178.148 63.6677 179.633 62.0118 177.643C60.9973 176.421 61.7267 175.083 64.0785 173.641C76.5941 165.988 89.1159 158.337 101.638 150.691C102.384 150.237 103.153 149.825 103.914 149.394C104.006 149.541 104.101 149.686 104.193 149.833Z" fill="white"/>
<path d="M46.4334 186.925C45.5133 187.652 44.5994 188.387 43.6708 189.104C37.8354 193.597 31.9999 198.091 26.1582 202.578C25.6824 202.941 25.1898 203.467 24.6616 203.53C24.0098 203.607 23.0456 203.492 22.706 203.065C22.3874 202.668 22.5719 201.708 22.7961 201.091C22.9513 200.664 23.5193 200.345 23.9595 200.072C30.9875 195.721 38.0219 191.387 45.0626 187.06C45.4147 186.843 45.8277 186.726 46.2133 186.562C46.2867 186.681 46.3601 186.803 46.4334 186.925Z" fill="white"/>
<path d="M76.0168 91.7548C73.5015 89.7633 70.9779 87.7802 68.4731 85.7781C64.3543 82.4862 60.2482 79.1818 56.1378 75.8793C55.8443 75.6441 54.9325 74.1777 55.0856 73.0854C55.509 72.0182 57.0496 72.2976 57.5924 72.7534C59.5481 74.3941 61.2962 76.2848 63.1219 78.0809C67.1505 82.0409 71.1812 86.0008 75.1993 89.9712C75.6186 90.3851 75.9476 90.8872 76.3186 91.3493C76.218 91.4859 76.1174 91.6203 76.0168 91.7548Z" fill="white"/>
<path d="M201.739 79.7052C202.951 78.6759 203.924 77.8041 204.94 76.9911C210.361 72.6698 215.768 68.3275 221.26 64.1008C221.832 63.6575 223.142 63.2794 223.796 63.8382C224.283 64.4789 223.574 65.7478 223.056 66.1007C216.269 70.714 209.405 75.218 202.555 79.741C202.463 79.8019 202.284 79.7347 201.739 79.7052Z" fill="white"/>
<path d="M149.872 223.718C150.497 225.623 151.132 227.525 151.744 229.432C152.989 233.312 154.282 237.178 155.402 241.093C155.59 241.749 155.856 243.324 154.79 243.4C154.079 243.451 153.23 242.425 153.083 241.793C151.723 235.858 150.505 229.89 149.245 223.932C149.455 223.861 149.663 223.79 149.872 223.718Z" fill="white"/>
</svg>
